<mxfile host="app.diagrams.net" modified="2021-07-09T07:21:14.231Z" agent="5.0 (X11)" etag="k2QsedFaQw0eC0s44UmQ" version="14.8.5" type="github">
  <diagram id="4SWVLtr_GVp-sqbv32vE" name="Page-1">
    <mxGraphModel dx="677" dy="390" grid="1" gridSize="10" guides="1" tooltips="1" connect="1" arrows="1" fold="1" page="1" pageScale="1" pageWidth="827" pageHeight="1169" math="0" shadow="0">
      <root>
        <mxCell id="0" />
        <mxCell id="1" parent="0" />
        <mxCell id="AJFXyng9MxqC-oh-xhJU-1" value="" style="swimlane;startSize=0;gradientColor=#ffffff;" vertex="1" parent="1">
          <mxGeometry x="200" y="120" width="470" height="400" as="geometry" />
        </mxCell>
        <mxCell id="AJFXyng9MxqC-oh-xhJU-24" value="" style="rounded=0;whiteSpace=wrap;html=1;strokeColor=#000000;gradientColor=#ffffff;gradientDirection=west;fillColor=none;" vertex="1" parent="AJFXyng9MxqC-oh-xhJU-1">
          <mxGeometry x="30" y="20" width="410" height="90" as="geometry" />
        </mxCell>
        <mxCell id="AJFXyng9MxqC-oh-xhJU-25" value="" style="rounded=0;whiteSpace=wrap;html=1;strokeColor=#000000;gradientColor=#ffffff;gradientDirection=west;fillColor=none;" vertex="1" parent="AJFXyng9MxqC-oh-xhJU-1">
          <mxGeometry x="30" y="130" width="410" height="260" as="geometry" />
        </mxCell>
        <mxCell id="AJFXyng9MxqC-oh-xhJU-7" value="" style="rounded=0;whiteSpace=wrap;html=1;fillColor=none;" vertex="1" parent="1">
          <mxGeometry x="100" y="120" width="90" height="400" as="geometry" />
        </mxCell>
        <mxCell id="AJFXyng9MxqC-oh-xhJU-9" value="" style="rounded=0;whiteSpace=wrap;html=1;fillColor=#E6E6E6;" vertex="1" parent="1">
          <mxGeometry x="115" y="185" width="60" height="20" as="geometry" />
        </mxCell>
        <mxCell id="AJFXyng9MxqC-oh-xhJU-14" value="" style="rounded=0;whiteSpace=wrap;html=1;fillColor=#E6E6E6;" vertex="1" parent="1">
          <mxGeometry x="115" y="215" width="60" height="20" as="geometry" />
        </mxCell>
        <mxCell id="AJFXyng9MxqC-oh-xhJU-15" value="" style="rounded=0;whiteSpace=wrap;html=1;fillColor=#E6E6E6;" vertex="1" parent="1">
          <mxGeometry x="115" y="245" width="60" height="20" as="geometry" />
        </mxCell>
        <mxCell id="AJFXyng9MxqC-oh-xhJU-16" value="" style="rounded=0;whiteSpace=wrap;html=1;fillColor=#E6E6E6;" vertex="1" parent="1">
          <mxGeometry x="115" y="275" width="60" height="20" as="geometry" />
        </mxCell>
        <mxCell id="AJFXyng9MxqC-oh-xhJU-17" value="" style="rounded=0;whiteSpace=wrap;html=1;fillColor=#E6E6E6;" vertex="1" parent="1">
          <mxGeometry x="115" y="305" width="60" height="20" as="geometry" />
        </mxCell>
        <mxCell id="AJFXyng9MxqC-oh-xhJU-18" value="" style="rounded=0;whiteSpace=wrap;html=1;fillColor=#E6E6E6;" vertex="1" parent="1">
          <mxGeometry x="115" y="335" width="60" height="20" as="geometry" />
        </mxCell>
        <mxCell id="AJFXyng9MxqC-oh-xhJU-19" value="" style="rounded=0;whiteSpace=wrap;html=1;fillColor=#E6E6E6;" vertex="1" parent="1">
          <mxGeometry x="115" y="395" width="60" height="20" as="geometry" />
        </mxCell>
        <mxCell id="AJFXyng9MxqC-oh-xhJU-20" value="" style="rounded=0;whiteSpace=wrap;html=1;fillColor=#E6E6E6;" vertex="1" parent="1">
          <mxGeometry x="115" y="365" width="60" height="20" as="geometry" />
        </mxCell>
        <mxCell id="AJFXyng9MxqC-oh-xhJU-22" value="" style="rounded=0;whiteSpace=wrap;html=1;fillColor=#E6E6E6;" vertex="1" parent="1">
          <mxGeometry x="115" y="425" width="60" height="20" as="geometry" />
        </mxCell>
        <mxCell id="AJFXyng9MxqC-oh-xhJU-23" value="" style="rounded=0;whiteSpace=wrap;html=1;fillColor=#E6E6E6;" vertex="1" parent="1">
          <mxGeometry x="115" y="455" width="60" height="20" as="geometry" />
        </mxCell>
      </root>
    </mxGraphModel>
  </diagram>
</mxfile>
